<?xml version="1.0" encoding="utf-8"?>
<?xml-stylesheet type="text/xsl" href="rss1.xsl"?>
<rss version="2.0" xmlns:atom="http://www.w3.org/2005/Atom" xmlns:content="http://purl.org/rss/1.0/modules/content/" xmlns:dc="http://purl.org/dc/elements/1.1/" xmlns:media="http://search.yahoo.com/mrss/">
<channel>
 <title>Getty</title>
 <link>http://www.gettyimg.com/</link>
 <atom:link href="http://www.gettyimg.com/" rel="self" type="application/rss+xml" />

 
                <item>
                <title><![CDATA[【HD Live Performances】WEB-RiP - Fujii Kaze - tiny desk concerts JAPAN - 29/03/24 - 720 NHK World Japan]]></title>
                <link><![CDATA[https://sharemania.us/threads/fujii-kaze-tiny-desk-concerts-japan-29-03-24-720-nhk-world-japan.241311/]]></link>
                <description><![CDATA[<article>
<blockquote class="messageText SelectQuoteContainer ugc baseHtml">
<img src="https://i.imgur.com/7ZzCtCq.jpeg" class="bbCodeImage LbImage" alt="[​IMG]" data-url="https://i.imgur.com/7ZzCtCq.jpeg" style=""> <br>
Hi! I'm back! So, today I wanted to show you this video that was recently on NHK's website and (annoyingly) is not on any YouTube channel (not even NPR Music!). it's Fujii Kaze on '<a href="https://www3.nhk.or.jp/nhkworld/en/shows/tinydeskconcerts/" target="_blank" class="externalLink" rel="nofollow">tiny desk concerts JAPAN'</a>. If you never heard of it, then you might have known of NPR's Tiny Desk concerts on YouTube. this JAPAN version is an NHK Music X NPR Music collab. I am also gonna upload NHK World Japan Music Festival 2023 as well. Stay Tuned!<br>
<br>
Synopsis: Renowned Japanese artist and international star Fujii Kaze makes his way to NHK's tiny desk in Shibuya, Tokyo! Embracing the spirit of the tiny desk, Fujii Kaze performs a set of original music and delivers an unparalleled original experience.<br>
<br>
<div class="ToggleTriggerAnchor bbCodeSpoilerContainer">
<button type="button" class="button bbCodeSpoilerButton ToggleTrigger Tooltip JsOnly" data-target="> .SpoilerTarget"><span>Spoiler: <span class="SpoilerTitle">What is Tiny Desk Concerts?</span></span></button>
<div class="SpoilerTarget bbCodeSpoilerText"><b>Tiny Desk Concerts</b> is a video series of live concerts hosted by <a href="https://en.wikipedia.org/wiki/NPR_Music" target="_blank" class="externalLink" rel="nofollow">NPR Music</a> (a project of <a href="https://en.wikipedia.org/wiki/National_Public_Radio" target="_blank" class="externalLink" rel="nofollow">National Public Radio</a> or NPR for short). The regular version is on NPR's tiny desk in Washington, DC, while the JAPAN version is on NHK's tiny desk in Shibuya, Tokyo.</div>
</div><br>
<div class="ToggleTriggerAnchor bbCodeSpoilerContainer">
<button type="button" class="button bbCodeSpoilerButton ToggleTrigger Tooltip JsOnly" data-target="> .SpoilerTarget"><span>Spoiler: <span class="SpoilerTitle">Why I can't find this on YouTube yet?</span></span></button>
<div class="SpoilerTarget bbCodeSpoilerText">That's the odd part. it's only on NHK World Japan (either linearly through Cable or satellite or online through their app and website). Thankfully, their videos are DRM-free, so it takes just a downloader and that's it.</div>
</div><br>
<div class="ToggleTriggerAnchor bbCodeSpoilerContainer">
<button type="button" class="button bbCodeSpoilerButton ToggleTrigger Tooltip JsOnly" data-target="> .SpoilerTarget"><span>Spoiler: <span class="SpoilerTitle">Songlist</span></span></button>
<div class="SpoilerTarget bbCodeSpoilerText">1. Matsuri<br>
2. Garden<br>
3. damn<br>
4. Kirari<br>
5. Michi Teyu Ku (Overflowing)<br>
6. Shinunoga E-Wa</div>
</div><br>
<div class="ToggleTriggerAnchor bbCodeSpoilerContainer">
<button type="button" class="button bbCodeSpoilerButton ToggleTrigger Tooltip JsOnly" data-target="> .SpoilerTarget"><span>Spoiler: <span class="SpoilerTitle">MediaInfo</span></span></button>
<div class="SpoilerTarget bbCodeSpoilerText">General<br>
Format : MPEG-4<br>
Format profile : Base Media / Version 2<br>
Codec ID : mp42 (mp42/iso2/avc1/mp41)<br>
File size : 1.07 GiB<br>
Duration : 28 min 59 s<br>
Overall bit rate mode : Variable<br>
Overall bit rate : 5 306 kb/s<br>
Frame rate : 30.000 FPS<br>
Encoded date : 2024-04-02 23:35:52 UTC<br>
Tagged date : 2024-04-02 23:35:52 UTC<br>
Writing application : HandBrake 1.7.3 2024021000<br>
<br>
Video<br>
ID : 1<br>
Format : AVC<br>
Format/Info : Advanced Video Codec<br>
Format profile : Main@L3.1<br>
Format settings : CABAC / 4 Ref Frames<br>
Format settings, CABAC : Yes<br>
Format settings, Reference : 4 frames<br>
Codec ID : avc1<br>
Codec ID/Info : Advanced Video Coding<br>
Duration : 28 min 59 s<br>
Bit rate mode : Variable<br>
Bit rate : 5 101 kb/s<br>
Maximum bit rate : 11.2 Mb/s<br>
Width : 1 280 pixels<br>
Height : 720 pixels<br>
Display aspect ratio : 16:9<br>
Frame rate mode : Constant<br>
Frame rate : 30.000 FPS<br>
Color space : YUV<br>
Chroma subsampling : 4:2:0<br>
Bit depth : 8 bits<br>
Scan type : Progressive<br>
Bits/(Pixel*Frame) : 0.185<br>
Stream size : 1.03 GiB (96%)<br>
Encoded date : 2024-04-02 23:35:52 UTC<br>
Tagged date : 2024-04-02 23:35:52 UTC<br>
Color range : Limited<br>
Color primaries : BT.709<br>
Transfer characteristics : BT.709<br>
Matrix coefficients : BT.709<br>
Codec configuration box : avcC<br>
<br>
Audio<br>
ID : 2<br>
Format : AAC LC<br>
Format/Info : Advanced Audio Codec Low Complexity<br>
Codec ID : mp4a-40-2<br>
Duration : 28 min 59 s<br>
Source duration : 28 min 59 s<br>
Bit rate mode : Constant<br>
Bit rate : 196 kb/s<br>
Channel(s) : 2 channels<br>
Channel layout : L R<br>
Sampling rate : 44.1 kHz<br>
Frame rate : 43.066 FPS (1024 SPF)<br>
Compression mode : Lossy<br>
Stream size : 40.7 MiB (4%)<br>
Source stream size : 40.7 MiB (4%)<br>
Title : Stereo<br>
Default : Yes<br>
Alternate group : 1<br>
Encoded date : 2024-04-02 23:35:52 UTC<br>
Tagged date : 2024-04-02 23:35:52 UTC</div>
</div><br>
<div class="ToggleTriggerAnchor bbCodeSpoilerContainer">
<button type="button" class="button bbCodeSpoilerButton ToggleTrigger Tooltip JsOnly" data-target="> .SpoilerTarget"><span>Spoiler: <span class="SpoilerTitle">Photos from the episode's page</span></span></button>
<div class="SpoilerTarget bbCodeSpoilerText"><img src="https://i.imgur.com/fbx7BW2.jpeg" class="bbCodeImage LbImage" alt="[​IMG]" data-url="https://i.imgur.com/fbx7BW2.jpeg" style=""> <br>
<img src="https://i.imgur.com/aX0rpqJ.jpeg" class="bbCodeImage LbImage" alt="[​IMG]" data-url="https://i.imgur.com/aX0rpqJ.jpeg" style=""> <br>
<img src="https://i.imgur.com/1qql399.jpeg" class="bbCodeImage LbImage" alt="[​IMG]" data-url="https://i.imgur.com/1qql399.jpeg" style=""></div>
</div><br>
<div class="bbCodeBlock bbCodeVfcHH HiddenContent">
<div class="attribution type">Hidden Content:</div>
<blockquote>You must either reply or click 'Like' to see the hidden information contained here.</blockquote>
</div>
<div class="messageTextEndMarker">&nbsp;</div>
</blockquote>
</article>]]></description>
                <author><![CDATA[charlescanlom]]></author>
                </item>

                </channel></rss>